# xmcd
#
# Track frame offsets: 
#        150
#        12068
#        24778
#        35666
#        44818
#        56496
#        66582
#        76871
#        87180
#        95551
#        107724
#        118464
#        130579
#        141612
#        150992
#        160739
#        173959
#        182882
#        193480
#        204705
#        216811
#        226342
#        236247
#        247442
#        259529
#        271375
#        282766
#        294181
#        305898
#        315349
#        317670
#        320750
#        328051
#        330439
#        338720
#
# Disc length: 4720 seconds
#
# Revision: 0
# Processed by: cddbd v1.5.2PL0 Copyright (c) Steve Scherf et al.
# Submitted via: ExactAudioCopy v0.95b3
#
DISCID=13126e23
DTITLE=The Beatles  - A Hard Day's Night Deluxe (Purple Chick) - Disc 
DTITLE=1 - stereo  FLAC
DYEAR=1900
DGENRE=
TTITLE0=A Hard Day's Night
TTITLE1=I Should Have Known Better
TTITLE2=If I Fell
TTITLE3=I'm Happy Just to Dance With You
TTITLE4=And I Love Her
TTITLE5=Tell Me Why
TTITLE6=Can't Buy Me Love
TTITLE7=Any Time at All
TTITLE8=I'll Cry Instead
TTITLE9=Things We Said Today
TTITLE10=When I Get Home
TTITLE11=You Can't Do That
TTITLE12=I'll Be Back
TTITLE13=Long Tall Sally
TTITLE14=I Call Your Name
TTITLE15=Slow Down
TTITLE16=Matchbox
TTITLE17=Sie Liebt Dich
TTITLE18=Komm Gib Mir Deine Hand
TTITLE19=And I Love Her (German Stereo)
TTITLE20=Long Tall Sally (US Stereo)
TTITLE21=I Call Your Name (US Stereo)
TTITLE22=Komm, Gib Mir Deine Hand (US stereo)
TTITLE23=A Hard Day's Night (Making AHDN)
TTITLE24=You Can't Do That (Making AHDN)
TTITLE25=And I Love Her (Making AHDN)
TTITLE26=If I Fell (Anthology)
TTITLE27=Things We Said Today (Anthology)
TTITLE28=Long Tall Sally (Anthology)
TTITLE29=I Should Have Known Better (Making AHDN)
TTITLE30=If I Fell (Making AHDN)
TTITLE31=Tell Me Why (Making AHDN)
TTITLE32=IHJTDWY (Making AHDN)
TTITLE33=Can't Buy Me Love (Making AHDN)
TTITLE34=Anthology medley
EXTD=
EXTT0=
EXTT1=
EXTT2=
EXTT3=
EXTT4=
EXTT5=
EXTT6=
EXTT7=
EXTT8=
EXTT9=
EXTT10=
EXTT11=
EXTT12=
EXTT13=
EXTT14=
EXTT15=
EXTT16=
EXTT17=
EXTT18=
EXTT19=
EXTT20=
EXTT21=
EXTT22=
EXTT23=
EXTT24=
EXTT25=
EXTT26=
EXTT27=
EXTT28=
EXTT29=
EXTT30=
EXTT31=
EXTT32=
EXTT33=
EXTT34=
PLAYORDER=
